<?xml version="1.0" encoding="iso-8859-1"?>
<!-- Generator: Adobe Illustrator 19.0.0, SVG Export Plug-In . SVG Version: 6.00 Build 0)  -->
<svg version="1.1" id="Layer_1" xmlns="http://www.w3.org/2000/svg" xmlns:xlink="http://www.w3.org/1999/xlink" x="0px" y="0px"
	 viewBox="0 0 512 512" style="enable-background:new 0 0 512 512;" xml:space="preserve">
<circle style="fill:#E16B5A;" cx="256" cy="256" r="256"/>
<path style="fill:#D16354;" d="M481.824,376.612c-0.292-0.824-0.648-1.62-0.984-2.428c-0.292-0.836-0.652-1.64-0.992-2.456
	c-0.292-0.836-0.652-1.636-0.992-2.452c-0.292-0.84-0.656-1.648-0.996-2.468c-0.288-0.828-0.652-1.628-0.988-2.44
	c-0.292-0.836-0.652-1.64-0.988-2.456c-0.296-0.836-0.656-1.636-0.992-2.452c-0.296-0.84-0.656-1.648-1-2.468
	c-0.288-0.828-0.648-1.628-0.984-2.44c-0.296-0.836-0.656-1.64-0.992-2.456c-0.296-0.848-0.664-1.664-1.008-2.492
	c-0.288-0.82-0.648-1.612-0.984-2.416c-0.288-0.84-0.656-1.648-0.992-2.468c-0.292-0.828-0.656-1.628-0.992-2.436
	c-0.288-0.836-0.648-1.64-0.992-2.456c-0.288-0.836-0.648-1.64-0.992-2.456c-0.288-0.84-0.652-1.648-0.992-2.468
	c-0.292-0.828-0.652-1.628-0.988-2.436c-0.292-0.836-0.652-1.64-0.992-2.456c-0.292-0.836-0.652-1.64-0.992-2.456
	c-0.292-0.84-0.656-1.648-0.996-2.468c-0.292-0.828-0.652-1.624-0.988-2.436c-0.292-0.836-0.652-1.64-0.992-2.456
	c-0.292-0.836-0.652-1.64-0.992-2.456c-0.292-0.836-0.652-1.64-0.992-2.456c-0.292-0.84-0.656-1.644-0.996-2.464
	c-0.288-0.828-0.648-1.628-0.988-2.44c-0.292-0.836-0.652-1.64-0.988-2.456c-0.296-0.836-0.656-1.64-0.992-2.452
	c-0.296-0.84-0.656-1.648-1-2.468c-0.288-0.828-0.648-1.628-0.984-2.44c-0.296-0.836-0.656-1.64-0.992-2.456
	c-0.296-0.836-0.656-1.636-0.992-2.452c-0.292-0.84-0.656-1.648-1-2.468c-0.288-0.828-0.648-1.628-0.984-2.44
	c-0.296-0.848-0.664-1.668-1.008-2.496c-0.288-0.82-0.648-1.612-0.984-2.416c-0.288-0.836-0.648-1.64-0.992-2.456
	c-0.288-0.84-0.652-1.648-0.992-2.468c-0.292-0.828-0.652-1.628-0.988-2.436c-0.292-0.84-0.652-1.64-0.992-2.456
	c-0.292-0.836-0.652-1.64-0.992-2.456c-0.292-0.84-0.656-1.648-0.996-2.468c-0.292-0.828-0.652-1.628-0.988-2.436
	c-0.292-0.836-0.652-1.64-0.992-2.456c-0.292-0.836-0.652-1.64-0.992-2.456c-0.292-0.84-0.656-1.648-0.996-2.468
	c-0.288-0.828-0.652-1.628-0.988-2.436c-0.292-0.836-0.652-1.64-0.988-2.456c-0.296-0.836-0.656-1.64-0.992-2.456
	c-0.296-0.836-0.656-1.64-0.992-2.456c-0.296-0.84-0.656-1.644-1-2.464c-0.288-0.828-0.648-1.628-0.984-2.44
	c-0.296-0.836-0.656-1.64-0.992-2.456c-0.292-0.836-0.656-1.64-0.992-2.456c-0.292-0.84-0.656-1.644-1-2.464
	c-0.288-0.828-0.648-1.628-0.984-2.44c-0.292-0.836-0.652-1.64-0.992-2.456c-0.292-0.836-0.652-1.64-0.992-2.452
	c-0.292-0.844-0.656-1.648-0.996-2.468c-0.296-0.84-0.66-1.656-1.004-2.48c-0.288-0.82-0.648-1.612-0.98-2.416
	c-0.292-0.836-0.652-1.64-0.992-2.452c-0.292-0.836-0.652-1.64-0.992-2.456c-0.292-0.84-0.656-1.648-0.996-2.468
	c-0.292-0.828-0.652-1.628-0.988-2.44c-0.292-0.836-0.652-1.636-0.992-2.452c-0.292-0.836-0.652-1.64-0.992-2.456
	c-0.292-0.84-0.656-1.648-0.996-2.468c-0.288-0.828-0.648-1.628-0.984-2.44c-0.296-0.836-0.656-1.636-0.992-2.452
	c-0.296-0.836-0.656-1.64-0.992-2.456c-0.296-0.84-0.656-1.648-1-2.468c-0.288-0.828-0.648-1.628-0.984-2.44
	c-0.296-0.836-0.656-1.636-0.992-2.452c-0.292-0.836-0.656-1.64-0.992-2.456c-0.292-0.836-0.656-1.64-0.992-2.456
	c-0.292-0.84-0.656-1.648-1-2.468c-0.288-0.828-0.648-1.624-0.984-2.436c-0.292-0.836-0.652-1.64-0.992-2.456
	c-0.292-0.836-0.652-1.64-0.992-2.456c-0.292-0.84-0.656-1.648-0.996-2.468c-0.292-0.824-0.652-1.624-0.988-2.436
	c-0.292-0.836-0.652-1.64-0.992-2.456c-0.292-0.836-0.652-1.64-0.992-2.456c-0.496-1.416-1.064-2.804-1.688-4.172
	c-0.092-0.248-0.204-0.492-0.3-0.74c-0.292-0.836-0.652-1.64-0.992-2.456c-0.292-0.836-0.652-1.64-0.992-2.456
	c-0.292-0.84-0.656-1.644-0.996-2.464c-0.288-0.828-0.648-1.628-0.984-2.44c-0.296-0.836-0.656-1.64-0.992-2.456
	c-0.296-0.836-0.656-1.64-0.992-2.456c-0.296-0.836-0.656-1.636-0.992-2.452c-0.296-0.84-0.656-1.648-1-2.468
	c-0.288-0.828-0.648-1.628-0.984-2.44c-0.296-0.836-0.656-1.64-0.992-2.452C378.688,118.792,358.984,104,338,104h-12H210h-36
	c-1.344,0-2.68,0.08-4.008,0.2c-0.468,0.044-0.932,0.104-1.4,0.16c-0.852,0.104-1.704,0.236-2.548,0.38
	c-0.548,0.096-1.092,0.2-1.636,0.312c-0.8,0.172-1.596,0.38-2.392,0.588c-0.504,0.132-1.008,0.252-1.504,0.4
	c-0.012,0.004-0.024,0.004-0.032,0.008c0,0,0,0,0,0.004c-18.324,5.556-33.408,21.808-36.188,40.96L96.028,330.796
	c-1.316,4.168-2.032,8.596-2.032,13.204v20c0,6.376,1.396,12.42,3.844,17.9c0.312,0.828,0.632,1.652,0.992,2.456
	c0.312,0.832,0.636,1.66,0.996,2.468c0.312,0.824,0.628,1.64,0.988,2.44c0.312,0.828,0.632,1.652,0.992,2.452
	c0.312,0.828,0.632,1.652,0.992,2.456c0.312,0.828,0.632,1.652,0.992,2.456c0.312,0.832,0.636,1.66,0.996,2.468
	c0.312,0.824,0.628,1.64,0.988,2.436c0.312,0.828,0.632,1.652,0.992,2.456c0.312,0.828,0.632,1.652,0.992,2.456
	c0.316,0.844,0.644,1.684,1.016,2.504c0.304,0.812,0.62,1.616,0.972,2.408c0.312,0.828,0.632,1.652,0.992,2.456
	c0.312,0.828,0.632,1.652,0.992,2.456c0.312,0.832,0.636,1.66,0.996,2.468c0.312,0.824,0.628,1.636,0.988,2.436
	c0.312,0.828,0.632,1.652,0.992,2.456c0.312,0.828,0.632,1.652,0.992,2.456c0.312,0.832,0.636,1.66,0.996,2.464
	c0.312,0.824,0.628,1.64,0.988,2.44c0.312,0.828,0.632,1.652,0.992,2.456c0.312,0.828,0.632,1.652,0.992,2.456
	c0.312,0.828,0.632,1.652,0.992,2.452c0.312,0.832,0.636,1.66,0.996,2.468c0.312,0.824,0.628,1.64,0.988,2.44
	c0.312,0.828,0.632,1.652,0.992,2.456c0.312,0.824,0.632,1.652,0.992,2.452c0.312,0.832,0.636,1.66,0.996,2.468
	c0.312,0.824,0.628,1.64,0.988,2.44c0.312,0.828,0.632,1.652,0.992,2.452c0.312,0.828,0.632,1.652,0.992,2.456
	c0.312,0.832,0.636,1.66,0.996,2.468c0.312,0.824,0.628,1.64,0.988,2.44c0.312,0.828,0.632,1.652,0.992,2.452
	c0.312,0.828,0.632,1.652,0.992,2.456c0.316,0.84,0.64,1.676,1.008,2.492c0.308,0.82,0.628,1.636,0.984,2.432
	c0.312,0.824,0.628,1.64,0.988,2.436c0.312,0.828,0.632,1.652,0.992,2.456c0.312,0.828,0.632,1.652,0.992,2.456
	c0.312,0.832,0.636,1.66,0.996,2.468c0.132,0.352,0.284,0.692,0.42,1.04C174.044,501.732,213.812,512,256,512
	C353.764,512,438.704,457.176,481.824,376.612z"/>
<path style="fill:#406A80;" d="M412,360H96c-1.16,0-2.264-0.504-3.024-1.384C92.216,357.744,92,352,92,344l30.296-196.988
	C125.74,123.296,148.036,104,172,104h164c23.964,0,46.256,19.296,49.704,43.012L416,344c0,4-0.22,13.744-0.976,14.616
	C414.264,359.496,413.16,360,412,360z"/>
<g>
	<path style="fill:#325366;" d="M385.704,147.012C382.256,123.296,359.964,104,336,104h-12c23.964,0,46.256,19.296,49.704,43.012
		L404,344c0,4-0.22,13.744-0.976,14.616c-0.76,0.88-1.864,1.384-3.024,1.384h12c1.16,0,2.264-0.504,3.024-1.384
		C415.78,357.744,416,348,416,344L385.704,147.012z"/>
	<path style="fill:#325366;" d="M372,408H136c-24.26,0-44-19.74-44-44v-20c0-24.26,19.74-44,44-44h236c24.256,0,44,19.74,44,44v20
		C416,388.26,396.256,408,372,408z"/>
</g>
<path style="fill:#406A80;" d="M136,400c-19.852,0-36-16.148-36-36v-20c0-19.852,16.148-36,36-36h236c19.852,0,36,16.148,36,36v20
	c0,19.852-16.148,36-36,36H136z"/>
<circle style="fill:#F5F5F5;" cx="345.32" cy="354" r="20"/>
<circle style="fill:#406A80;" cx="345.32" cy="354" r="12"/>
<path style="fill:#E16B5A;" d="M312,254.668c0,5.132-4.2,9.332-9.332,9.332h-93.336c-5.132,0-9.332-4.2-9.332-9.332v-93.336
	c0-5.132,4.2-9.332,9.332-9.332h93.336c5.132,0,9.332,4.2,9.332,9.332V254.668z"/>
<rect x="215.556" y="152" style="fill:#F5F5F5;" width="80.888" height="40.444"/>
<rect x="268.44" y="158.224" style="fill:#E16B5A;" width="15.556" height="28"/>
<rect x="218.668" y="217.32" style="fill:#E6E6E6;" width="74.664" height="46.668"/>
<g>
	<path style="fill:#CCCCCC;" d="M280.892,232.892h-49.78c-1.72,0-3.108-1.396-3.108-3.108c0-1.72,1.392-3.108,3.108-3.108h49.78
		c1.72,0,3.108,1.392,3.108,3.108C284,231.496,282.608,232.892,280.892,232.892z"/>
	<path style="fill:#CCCCCC;" d="M280.892,248.444h-49.78c-1.72,0-3.108-1.396-3.108-3.112s1.392-3.108,3.108-3.108h49.78
		c1.72,0,3.108,1.396,3.108,3.108C284,247.056,282.608,248.444,280.892,248.444z"/>
</g>
<g>
</g>
<g>
</g>
<g>
</g>
<g>
</g>
<g>
</g>
<g>
</g>
<g>
</g>
<g>
</g>
<g>
</g>
<g>
</g>
<g>
</g>
<g>
</g>
<g>
</g>
<g>
</g>
<g>
</g>
</svg>
