<?xml version="1.0" encoding="iso-8859-1"?>
<!-- Generator: Adobe Illustrator 19.0.0, SVG Export Plug-In . SVG Version: 6.00 Build 0)  -->
<svg version="1.1" id="Layer_1" xmlns="http://www.w3.org/2000/svg" xmlns:xlink="http://www.w3.org/1999/xlink" x="0px" y="0px"
	 viewBox="0 0 509.287 509.287" style="enable-background:new 0 0 509.287 509.287;" xml:space="preserve">
<circle style="fill:#F5EA0A;" cx="254.644" cy="254.644" r="254.644"/>
<polygon style="fill:#D64E3C;" points="220.058,459.783 207.513,412.652 169.197,443.168 225.144,273.971 276.005,290.585 "/>
<polygon style="fill:#D54232;" points="324.154,485.213 334.665,432.318 375.015,468.26 310.591,273.971 259.73,290.585 "/>
<path style="fill:#F1F3F7;" d="M471.311,180.048H37.976v125.796h433.335c14.58,0,26.448-28.143,26.448-63.068
	C497.759,208.191,485.891,180.048,471.311,180.048z"/>
<path style="fill:#F0582F;" d="M286.856,180.048h-50.861c14.58,0,26.448,28.143,26.448,63.068s-11.868,63.068-26.448,63.068h50.861
	c14.58,0,26.448-28.143,26.448-63.068S301.775,180.048,286.856,180.048z"/>
<ellipse style="fill:#DEDEDF;" cx="37.976" cy="243.115" rx="26.448" ry="63.068"/>
<g>
</g>
<g>
</g>
<g>
</g>
<g>
</g>
<g>
</g>
<g>
</g>
<g>
</g>
<g>
</g>
<g>
</g>
<g>
</g>
<g>
</g>
<g>
</g>
<g>
</g>
<g>
</g>
<g>
</g>
</svg>
